<svg id="People" xmlns="http://www.w3.org/2000/svg" xmlns:xlink="http://www.w3.org/1999/xlink" width="513.091" height="158" viewBox="0 0 513.091 158">
  <defs>
    <style>
      .cls-1 {
        fill: none;
      }

      .cls-2 {
        clip-path: url(#clip-path);
      }

      .cls-3 {
        fill: #119da4;
      }
    </style>
    <clipPath id="clip-path">
      <rect id="Rectangle_8" data-name="Rectangle 8" class="cls-1" width="97.091" height="158"/>
    </clipPath>
  </defs>
  <g id="Group_4" data-name="Group 4">
    <g id="Group_3" data-name="Group 3" class="cls-2">
      <path id="Path_10" data-name="Path 10" class="cls-3" d="M69.891,36.866A18.433,18.433,0,1,0,51.458,18.433,18.433,18.433,0,0,0,69.891,36.866" transform="translate(-21.346)"/>
      <path id="Path_11" data-name="Path 11" class="cls-3" d="M94.777,98.059,62.031,65.313c-.184-.184-.377-.358-.579-.523-.092-.075-.19-.142-.284-.212-.111-.084-.221-.17-.336-.248s-.231-.141-.347-.21-.208-.129-.316-.187-.24-.116-.36-.173-.224-.11-.34-.158-.237-.088-.356-.13-.247-.092-.374-.13-.24-.063-.36-.093-.257-.068-.389-.095-.28-.044-.42-.064c-.115-.016-.228-.038-.345-.049-.259-.026-.52-.04-.78-.04H40.652c-.263,0-.527.013-.789.039-.1.011-.2.03-.306.044-.153.021-.307.04-.459.07-.123.025-.242.059-.363.089s-.259.061-.386.1-.235.081-.352.123-.253.087-.378.138c-.108.046-.212.1-.319.148-.128.06-.256.117-.381.184-.1.054-.2.116-.295.174-.123.073-.248.143-.367.224s-.206.15-.309.227-.211.15-.311.233c-.176.144-.344.3-.506.457-.023.022-.048.042-.071.064L2.314,98.059a7.9,7.9,0,1,0,11.172,11.172l19.259-19.26v86.262a7.9,7.9,0,0,0,15.8,0,7.9,7.9,0,0,0,15.8,0V89.971l19.26,19.26A7.9,7.9,0,1,0,94.777,98.059" transform="translate(0 -26.133)"/>
    </g>
  </g>
  <g id="Group_5" data-name="Group 5" transform="translate(104)">
    <g id="Group_3-2" data-name="Group 3" class="cls-2">
      <path id="Path_10-2" data-name="Path 10" class="cls-3" d="M69.891,36.866A18.433,18.433,0,1,0,51.458,18.433,18.433,18.433,0,0,0,69.891,36.866" transform="translate(-21.346)"/>
      <path id="Path_11-2" data-name="Path 11" class="cls-3" d="M94.777,98.059,62.031,65.313c-.184-.184-.377-.358-.579-.523-.092-.075-.19-.142-.284-.212-.111-.084-.221-.17-.336-.248s-.231-.141-.347-.21-.208-.129-.316-.187-.24-.116-.36-.173-.224-.11-.34-.158-.237-.088-.356-.13-.247-.092-.374-.13-.24-.063-.36-.093-.257-.068-.389-.095-.28-.044-.42-.064c-.115-.016-.228-.038-.345-.049-.259-.026-.52-.04-.78-.04H40.652c-.263,0-.527.013-.789.039-.1.011-.2.03-.306.044-.153.021-.307.04-.459.07-.123.025-.242.059-.363.089s-.259.061-.386.1-.235.081-.352.123-.253.087-.378.138c-.108.046-.212.1-.319.148-.128.06-.256.117-.381.184-.1.054-.2.116-.295.174-.123.073-.248.143-.367.224s-.206.15-.309.227-.211.15-.311.233c-.176.144-.344.3-.506.457-.023.022-.048.042-.071.064L2.314,98.059a7.9,7.9,0,1,0,11.172,11.172l19.259-19.26v86.262a7.9,7.9,0,0,0,15.8,0,7.9,7.9,0,0,0,15.8,0V89.971l19.26,19.26A7.9,7.9,0,1,0,94.777,98.059" transform="translate(0 -26.133)"/>
    </g>
  </g>
  <g id="Group_6" data-name="Group 6" transform="translate(208)">
    <g id="Group_3-3" data-name="Group 3" class="cls-2">
      <path id="Path_10-3" data-name="Path 10" class="cls-3" d="M69.891,36.866A18.433,18.433,0,1,0,51.458,18.433,18.433,18.433,0,0,0,69.891,36.866" transform="translate(-21.346)"/>
      <path id="Path_11-3" data-name="Path 11" class="cls-3" d="M94.777,98.059,62.031,65.313c-.184-.184-.377-.358-.579-.523-.092-.075-.19-.142-.284-.212-.111-.084-.221-.17-.336-.248s-.231-.141-.347-.21-.208-.129-.316-.187-.24-.116-.36-.173-.224-.11-.34-.158-.237-.088-.356-.13-.247-.092-.374-.13-.24-.063-.36-.093-.257-.068-.389-.095-.28-.044-.42-.064c-.115-.016-.228-.038-.345-.049-.259-.026-.52-.04-.78-.04H40.652c-.263,0-.527.013-.789.039-.1.011-.2.03-.306.044-.153.021-.307.04-.459.07-.123.025-.242.059-.363.089s-.259.061-.386.1-.235.081-.352.123-.253.087-.378.138c-.108.046-.212.1-.319.148-.128.06-.256.117-.381.184-.1.054-.2.116-.295.174-.123.073-.248.143-.367.224s-.206.15-.309.227-.211.15-.311.233c-.176.144-.344.3-.506.457-.023.022-.048.042-.071.064L2.314,98.059a7.9,7.9,0,1,0,11.172,11.172l19.259-19.26v86.262a7.9,7.9,0,0,0,15.8,0,7.9,7.9,0,0,0,15.8,0V89.971l19.26,19.26A7.9,7.9,0,1,0,94.777,98.059" transform="translate(0 -26.133)"/>
    </g>
  </g>
  <g id="Group_7" data-name="Group 7" transform="translate(312)">
    <g id="Group_3-4" data-name="Group 3" class="cls-2">
      <path id="Path_10-4" data-name="Path 10" class="cls-3" d="M69.891,36.866A18.433,18.433,0,1,0,51.458,18.433,18.433,18.433,0,0,0,69.891,36.866" transform="translate(-21.346)"/>
      <path id="Path_11-4" data-name="Path 11" class="cls-3" d="M94.777,98.059,62.031,65.313c-.184-.184-.377-.358-.579-.523-.092-.075-.19-.142-.284-.212-.111-.084-.221-.17-.336-.248s-.231-.141-.347-.21-.208-.129-.316-.187-.24-.116-.36-.173-.224-.11-.34-.158-.237-.088-.356-.13-.247-.092-.374-.13-.24-.063-.36-.093-.257-.068-.389-.095-.28-.044-.42-.064c-.115-.016-.228-.038-.345-.049-.259-.026-.52-.04-.78-.04H40.652c-.263,0-.527.013-.789.039-.1.011-.2.03-.306.044-.153.021-.307.04-.459.07-.123.025-.242.059-.363.089s-.259.061-.386.1-.235.081-.352.123-.253.087-.378.138c-.108.046-.212.1-.319.148-.128.06-.256.117-.381.184-.1.054-.2.116-.295.174-.123.073-.248.143-.367.224s-.206.15-.309.227-.211.15-.311.233c-.176.144-.344.3-.506.457-.023.022-.048.042-.071.064L2.314,98.059a7.9,7.9,0,1,0,11.172,11.172l19.259-19.26v86.262a7.9,7.9,0,0,0,15.8,0,7.9,7.9,0,0,0,15.8,0V89.971l19.26,19.26A7.9,7.9,0,1,0,94.777,98.059" transform="translate(0 -26.133)"/>
    </g>
  </g>
  <g id="Group_8" data-name="Group 8" transform="translate(416)">
    <g id="Group_3-5" data-name="Group 3" class="cls-2">
      <path id="Path_10-5" data-name="Path 10" class="cls-3" d="M69.891,36.866A18.433,18.433,0,1,0,51.458,18.433,18.433,18.433,0,0,0,69.891,36.866" transform="translate(-21.346)"/>
      <path id="Path_11-5" data-name="Path 11" class="cls-3" d="M94.777,98.059,62.031,65.313c-.184-.184-.377-.358-.579-.523-.092-.075-.19-.142-.284-.212-.111-.084-.221-.17-.336-.248s-.231-.141-.347-.21-.208-.129-.316-.187-.24-.116-.36-.173-.224-.11-.34-.158-.237-.088-.356-.13-.247-.092-.374-.13-.24-.063-.36-.093-.257-.068-.389-.095-.28-.044-.42-.064c-.115-.016-.228-.038-.345-.049-.259-.026-.52-.04-.78-.04H40.652c-.263,0-.527.013-.789.039-.1.011-.2.03-.306.044-.153.021-.307.04-.459.07-.123.025-.242.059-.363.089s-.259.061-.386.1-.235.081-.352.123-.253.087-.378.138c-.108.046-.212.1-.319.148-.128.06-.256.117-.381.184-.1.054-.2.116-.295.174-.123.073-.248.143-.367.224s-.206.15-.309.227-.211.15-.311.233c-.176.144-.344.3-.506.457-.023.022-.048.042-.071.064L2.314,98.059a7.9,7.9,0,1,0,11.172,11.172l19.259-19.26v86.262a7.9,7.9,0,0,0,15.8,0,7.9,7.9,0,0,0,15.8,0V89.971l19.26,19.26A7.9,7.9,0,1,0,94.777,98.059" transform="translate(0 -26.133)"/>
    </g>
  </g>
</svg>
