<svg id="data" xmlns="http://www.w3.org/2000/svg" xmlns:xlink="http://www.w3.org/1999/xlink" width="193.295" height="261.288" viewBox="0 0 193.295 261.288">
  <defs>
    <clipPath id="clip-path">
      <rect id="Rectangle_16" data-name="Rectangle 16" width="193.295" height="261.288" fill="none"/>
    </clipPath>
  </defs>
  <g id="Group_26" data-name="Group 26" clip-path="url(#clip-path)">
    <path id="Path_21" data-name="Path 21" d="M193.541,261.653H21.29V45.233A23.233,23.233,0,0,1,44.523,22H193.541Z" transform="translate(-3.574 -3.693)" fill="#fff"/>
    <path id="Path_22" data-name="Path 22" d="M193.541,261.653H21.29V45.233A23.233,23.233,0,0,1,44.523,22H193.541Z" transform="translate(-3.574 -3.693)" fill="none" stroke="#119da4" stroke-miterlimit="10" stroke-width="8"/>
    <path id="Path_23" data-name="Path 23" d="M176.251,243.653H4V27.233A23.233,23.233,0,0,1,27.233,4H176.251Z" transform="translate(-0.671 -0.671)" fill="#fff"/>
    <path id="Path_24" data-name="Path 24" d="M176.251,243.653H4V27.233A23.233,23.233,0,0,1,27.233,4H176.251Z" transform="translate(-0.671 -0.671)" fill="none" stroke="#119da4" stroke-miterlimit="10" stroke-width="8"/>
    <path id="Path_25" data-name="Path 25" d="M48.726,150.318c-1.816-9.142,9.017-10.019,9.017-15.654,0-3.13-3.068-4.633-6.324-4.633a11.774,11.774,0,0,0-7.388,2.818l-3.256-6.137c1.565-1.628,6.512-4.071,12.21-4.071,7.452,0,13.275,4.321,13.275,10.958,0,9.956-11.208,10.332-11.021,16.718Zm3.444,4.008a5.345,5.345,0,0,1,5.322,5.26,5.26,5.26,0,0,1-10.52,0,5.321,5.321,0,0,1,5.2-5.26" transform="translate(-6.845 -20.588)" fill="#119da4"/>
    <path id="Path_26" data-name="Path 26" d="M48.726,150.318c-1.816-9.142,9.017-10.019,9.017-15.654,0-3.13-3.068-4.633-6.324-4.633a11.774,11.774,0,0,0-7.388,2.818l-3.256-6.137c1.565-1.628,6.512-4.071,12.21-4.071,7.452,0,13.275,4.321,13.275,10.958,0,9.956-11.208,10.332-11.021,16.718Zm3.444,4.008a5.345,5.345,0,0,1,5.322,5.26,5.26,5.26,0,0,1-10.52,0A5.321,5.321,0,0,1,52.17,154.325Z" transform="translate(-6.845 -20.588)" fill="none" stroke="#119da4" stroke-miterlimit="10" stroke-width="1"/>
    <path id="Path_27" data-name="Path 27" d="M100.139,150.318c-1.816-9.142,9.017-10.019,9.017-15.654,0-3.13-3.068-4.633-6.324-4.633a11.774,11.774,0,0,0-7.388,2.818l-3.256-6.137c1.565-1.628,6.512-4.071,12.21-4.071,7.452,0,13.275,4.321,13.275,10.958,0,9.956-11.208,10.332-11.021,16.718Zm3.444,4.008a5.345,5.345,0,0,1,5.322,5.26,5.26,5.26,0,0,1-10.52,0,5.321,5.321,0,0,1,5.2-5.26" transform="translate(-15.476 -20.588)" fill="#119da4"/>
    <path id="Path_28" data-name="Path 28" d="M100.139,150.318c-1.816-9.142,9.017-10.019,9.017-15.654,0-3.13-3.068-4.633-6.324-4.633a11.774,11.774,0,0,0-7.388,2.818l-3.256-6.137c1.565-1.628,6.512-4.071,12.21-4.071,7.452,0,13.275,4.321,13.275,10.958,0,9.956-11.208,10.332-11.021,16.718Zm3.444,4.008a5.345,5.345,0,0,1,5.322,5.26,5.26,5.26,0,0,1-10.52,0A5.321,5.321,0,0,1,103.583,154.325Z" transform="translate(-15.476 -20.588)" fill="none" stroke="#119da4" stroke-miterlimit="10" stroke-width="1"/>
    <path id="Path_29" data-name="Path 29" d="M151.552,150.318c-1.816-9.142,9.017-10.019,9.017-15.654,0-3.13-3.068-4.633-6.324-4.633a11.774,11.774,0,0,0-7.388,2.818l-3.256-6.137c1.565-1.628,6.512-4.071,12.21-4.071,7.452,0,13.275,4.321,13.275,10.958,0,9.956-11.208,10.332-11.021,16.718ZM155,154.325a5.345,5.345,0,0,1,5.322,5.26,5.26,5.26,0,0,1-10.52,0,5.321,5.321,0,0,1,5.2-5.26" transform="translate(-24.106 -20.588)" fill="#119da4"/>
    <path id="Path_30" data-name="Path 30" d="M151.552,150.318c-1.816-9.142,9.017-10.019,9.017-15.654,0-3.13-3.068-4.633-6.324-4.633a11.774,11.774,0,0,0-7.388,2.818l-3.256-6.137c1.565-1.628,6.512-4.071,12.21-4.071,7.452,0,13.275,4.321,13.275,10.958,0,9.956-11.208,10.332-11.021,16.718ZM155,154.325a5.345,5.345,0,0,1,5.322,5.26,5.26,5.26,0,0,1-10.52,0A5.321,5.321,0,0,1,155,154.325Z" transform="translate(-24.106 -20.588)" fill="none" stroke="#119da4" stroke-miterlimit="10" stroke-width="1"/>
  </g>
</svg>
