<svg xmlns="http://www.w3.org/2000/svg" xmlns:xlink="http://www.w3.org/1999/xlink" width="418" height="261" viewBox="0 0 418 261">
  <defs>
    <clipPath id="clip-path">
      <rect id="Rectangle_18" data-name="Rectangle 18" width="418" height="261" transform="translate(0 0)" fill="none"/>
    </clipPath>
  </defs>
  <g id="gear" transform="translate(0 0)">
    <g id="Group_28" data-name="Group 28" transform="translate(0)" clip-path="url(#clip-path)">
      <path id="Path_37" data-name="Path 37" d="M344.206,155.9a53.3,53.3,0,1,1-53.3-53.3,53.3,53.3,0,0,1,53.3,53.3" transform="translate(38.076 16.748)" fill="#fff"/>
      <path id="Path_38" data-name="Path 38" d="M384.676,172.683v-23.69H365.908a70.677,70.677,0,0,0-12.153-29.32L367.032,106.4,350.28,89.645,337,102.921a70.677,70.677,0,0,0-29.32-12.153V72h-23.69V90.769a70.677,70.677,0,0,0-29.32,12.153L241.4,89.645,224.645,106.4l13.277,13.277a70.677,70.677,0,0,0-12.153,29.32H207v23.69h18.769A70.677,70.677,0,0,0,237.921,202L224.645,215.28,241.4,232.032l13.277-13.277a70.677,70.677,0,0,0,29.32,12.153v18.769h23.69V230.908A70.677,70.677,0,0,0,337,218.755l13.277,13.277,16.751-16.751L353.755,202a70.677,70.677,0,0,0,12.153-29.32Zm-35.535-11.845a53.3,53.3,0,1,1-53.3-53.3,53.3,53.3,0,0,1,53.3,53.3" transform="translate(33.141 11.812)" fill="#119da4"/>
      <path id="Path_39" data-name="Path 39" d="M240.385,136.218V104.167H214.992A95.6,95.6,0,0,0,198.55,64.5l17.964-17.963L193.85,23.871,175.887,41.835a95.6,95.6,0,0,0-39.668-16.441V0H104.167V25.394A95.6,95.6,0,0,0,64.5,41.835L46.536,23.871,23.871,46.536,41.835,64.5a95.6,95.6,0,0,0-16.441,39.668H0v32.051H25.394a95.6,95.6,0,0,0,16.441,39.668L23.871,193.849l22.665,22.665L64.5,198.55a95.6,95.6,0,0,0,39.668,16.441v25.394h32.051V214.992a95.6,95.6,0,0,0,39.668-16.441l17.964,17.964,22.664-22.665L198.55,175.887a95.6,95.6,0,0,0,16.441-39.668Zm-48.077-16.026a72.116,72.116,0,1,1-72.116-72.116,72.115,72.115,0,0,1,72.116,72.116" transform="translate(-0.245 0.2)" fill="#119da4"/>
      <path id="Path_40" data-name="Path 40" d="M185.631,113.516A72.116,72.116,0,1,1,113.516,41.4a72.115,72.115,0,0,1,72.116,72.116" transform="translate(6.432 6.877)" fill="#fff"/>
    </g>
  </g>
</svg>
