<svg id="glass" xmlns="http://www.w3.org/2000/svg" xmlns:xlink="http://www.w3.org/1999/xlink" width="275" height="275" viewBox="0 0 275 275">
  <defs>
    <clipPath id="clip-path">
      <rect id="Rectangle_14" data-name="Rectangle 14" width="275" height="275" fill="#fff"/>
    </clipPath>
  </defs>
  <g id="Group_21" data-name="Group 21" clip-path="url(#clip-path)">
    <path id="Path_15" data-name="Path 15" d="M135.924,58.018a12.313,12.313,0,0,1-3.584,8.065L21.1,177.319A12.366,12.366,0,0,1,3.615,159.83L114.851,48.594a12.313,12.313,0,0,1,8.065-3.584,70.079,70.079,0,0,0,13.008,13.008" transform="translate(0 94.066)" fill="#fff"/>
    <path id="Path_16" data-name="Path 16" d="M122.787,0A95.75,95.75,0,0,0,46.9,154.185a97.608,97.608,0,0,0,17.489,17.489A95.774,95.774,0,1,0,122.787,0m0,166.854a71.067,71.067,0,1,1,71.067-71.067,70.524,70.524,0,0,1-71.067,71.067" transform="translate(56.427)" fill="#fff"/>
  </g>
</svg>
