<svg xmlns="http://www.w3.org/2000/svg" viewBox="0 0 494 494"><defs><style>.cls-1{fill:#000e15;}.cls-2{fill:#fff;}</style></defs><g id="Layer_2" data-name="Layer 2"><g id="Layer_1-2" data-name="Layer 1"><path class="cls-1" d="M334.59,372.93,109.85,148.2a6,6,0,0,1,0-8.46l29.89-29.89a6,6,0,0,1,8.46,0L372.93,334.59a5.88,5.88,0,0,1,1.54,2.65l11.22,41.1a6,6,0,0,1-7.35,7.35l-41.1-11.22A5.88,5.88,0,0,1,334.59,372.93Z"/><rect class="cls-2" x="140.58" y="116.85" width="6.78" height="54.23" transform="translate(347.57 143.97) rotate(135)"/><rect class="cls-2" x="217.27" y="166.43" width="6.78" height="108.47" transform="translate(532.73 220.66) rotate(135)"/><polygon class="cls-2" points="281.38 271.99 281.38 265.21 303.56 265.21 310.34 271.99 281.38 271.99"/><polygon class="cls-2" points="176.12 214.47 169.34 207.68 169.34 185.5 176.12 185.5 176.12 214.47"/><rect class="cls-2" x="286.78" y="266.44" width="6.78" height="47.45" transform="translate(700.53 290.17) rotate(135)"/><polygon class="cls-2" points="309.35 347.69 302.56 340.91 302.57 307.36 302.57 304.55 309.35 304.55 309.35 347.69"/><path class="cls-2" d="M185.14,160.31a17.56,17.56,0,1,0,0,24.83A17.59,17.59,0,0,0,185.14,160.31Zm-5.65,19.18a9.56,9.56,0,1,1,0-13.52A9.58,9.58,0,0,1,179.49,179.49Z"/><path class="cls-2" d="M281,256.18A17.56,17.56,0,0,0,256.18,281h0A17.56,17.56,0,1,0,281,256.18Z"/><path class="cls-1" d="M247,494A247,247,0,0,1,72.34,72.34,247,247,0,0,1,421.66,421.66,245.4,245.4,0,0,1,247,494ZM247,8C115.21,8,8,115.21,8,247S115.21,486,247,486,486,378.79,486,247,378.79,8,247,8Z"/></g></g></svg>