<svg id="person_question" xmlns="http://www.w3.org/2000/svg" xmlns:xlink="http://www.w3.org/1999/xlink" width="124.609" height="261.288" viewBox="0 0 124.609 261.288">
  <defs>
    <clipPath id="clip-path">
      <rect id="Rectangle_17" data-name="Rectangle 17" width="124.609" height="261.288" fill="none"/>
    </clipPath>
  </defs>
  <g id="Group_27" data-name="Group 27" clip-path="url(#clip-path)">
    <path id="Path_31" data-name="Path 31" d="M52.946,237.887A13.346,13.346,0,0,1,39.588,224.2V142.277L23.239,158.624a9.7,9.7,0,0,1-6.894,2.882,9.849,9.849,0,0,1-9.63-7.8A13.378,13.378,0,0,1,7.9,136.177l35.722-35.722.081-.07c.219-.213.485-.453.762-.681.163-.135.323-.253.485-.37.246-.185.408-.305.574-.416s.339-.215.515-.32l.117-.069c.192-.117.341-.2.495-.285s.357-.181.55-.272l.15-.069c.154-.075.309-.148.469-.214.2-.082.384-.149.569-.214l.148-.054c.172-.062.345-.123.522-.177s.382-.107.573-.154l.157-.038c.177-.045.353-.088.534-.125.242-.048.471-.082.7-.113l.781,4.708L51.15,96.8c.15-.024.3-.045.457-.061.464-.045.9-.068,1.347-.068H70.12c.441,0,.881.023,1.319.066.156.014.344.041.53.072l.143.019c.209.03.417.061.624.1.188.038.395.089.6.143l.116.03c.175.042.348.086.522.137.205.062.384.125.563.19l-1.517,4.525,1.689-4.463c.175.062.348.126.519.2.192.081.365.161.539.245.291.136.476.224.657.321.162.087.327.185.49.285.276.162.456.271.631.388s.338.237.507.367c.24.175.384.283.524.4a13.021,13.021,0,0,1,.99.9l35.6,35.6a13.36,13.36,0,0,1,1.2,17.52,9.61,9.61,0,0,1-2.878,5.142,9.873,9.873,0,0,1-6.76,2.667,9.7,9.7,0,0,1-6.894-2.882L83.48,142.277V224.2a13.536,13.536,0,0,1-11.709,13.584,13.673,13.673,0,0,1-1.651.1,13.3,13.3,0,0,1-8.586-3.132,13.3,13.3,0,0,1-8.588,3.133" transform="translate(0.771 18.631)" fill="#fff"/>
    <path id="Path_32" data-name="Path 32" d="M70.893,102.21c.283,0,.564.016.846.043.126.012.249.036.375.054.153.021.305.039.457.07s.283.067.422.1.262.062.392.1.272.093.407.142.259.088.386.142.247.113.37.171.264.12.392.19.229.135.344.2.254.147.377.229.245.178.365.268c.1.078.209.149.31.231.218.18.428.369.629.569l35.6,35.6a8.587,8.587,0,0,1,0,12.144,5.026,5.026,0,0,1-5.067,5.04,4.923,4.923,0,0,1-3.521-1.484L79.48,131.529v93.444a8.806,8.806,0,0,1-7.512,8.848,8.917,8.917,0,0,1-1.076.066A8.588,8.588,0,0,1,62.3,225.3a8.587,8.587,0,0,1-8.588,8.586,8.9,8.9,0,0,1-1.076-.066,8.8,8.8,0,0,1-7.512-8.848V131.529L20.637,156.022a4.925,4.925,0,0,1-3.521,1.484,5.027,5.027,0,0,1-5.067-5.04,8.587,8.587,0,0,1,0-12.144l35.6-35.6c.024-.025.051-.045.076-.069.177-.173.359-.341.55-.5.11-.091.225-.169.339-.253s.221-.171.336-.247.265-.163.4-.243c.106-.063.21-.131.32-.19.136-.073.276-.135.415-.2.116-.055.228-.112.346-.161.136-.056.274-.1.411-.15s.253-.094.383-.134.279-.074.42-.109.261-.069.395-.1c.165-.032.332-.052.5-.076.111-.014.219-.036.333-.048.283-.027.567-.043.85-.043H70.893Zm0-9.542H53.724c-.6,0-1.2.03-1.8.089-.25.025-.5.06-.753.1h-.011c-.33.045-.66.1-.988.161-.277.055-.549.119-.818.19l-.064.016c-.28.068-.561.141-.838.225s-.53.172-.788.266l-.072.026c-.276.1-.55.2-.822.31-.25.1-.489.213-.726.327l-.062.03c-.277.128-.551.261-.823.406-.234.126-.46.258-.683.395-.318.186-.582.348-.842.521-.236.159-.466.327-.693.5-.27.2-.5.373-.735.562-.329.271-.658.564-1,.887-.109.1-.215.2-.32.307L5.3,133.574a18.16,18.16,0,0,0-2.221,22.946,14.632,14.632,0,0,0,14.035,10.528,14.44,14.44,0,0,0,10.268-4.278l8.2-8.2v70.408a18.311,18.311,0,0,0,15.9,18.32,18.56,18.56,0,0,0,2.226.135,18.021,18.021,0,0,0,8.588-2.166,18.021,18.021,0,0,0,8.588,2.166,18.123,18.123,0,0,0,18.129-18.455V154.566l8.2,8.2a14.438,14.438,0,0,0,10.268,4.278,14.631,14.631,0,0,0,14.034-10.528,18.16,18.16,0,0,0-2.22-22.946l-35.6-35.6c-.413-.413-.858-.815-1.322-1.2-.218-.179-.44-.347-.666-.509-.26-.2-.5-.377-.756-.545s-.5-.322-.76-.472l-.054-.032c-.234-.143-.47-.281-.712-.41-.26-.14-.521-.267-.786-.389l-.068-.032c-.248-.119-.5-.235-.756-.341s-.525-.206-.787-.3l-.07-.025c-.271-.1-.544-.194-.823-.278s-.536-.151-.805-.217l-.06-.016c-.285-.074-.571-.143-.862-.2s-.6-.106-.908-.148-.569-.085-.847-.112c-.592-.058-1.192-.088-1.777-.088" transform="translate(0 17.86)" fill="#119da4"/>
    <path id="Path_33" data-name="Path 33" d="M53.489,54.825a8.363,8.363,0,0,1-6.034-2.591A8.194,8.194,0,0,1,45.214,46.2c.4-7.67,5.68-11.865,9.537-14.928,2.154-1.712,4.19-3.329,4.19-4.572,0-1.745-3.449-2.137-4.658-2.137a11.707,11.707,0,0,0-5.7,1.56,8.42,8.42,0,0,1-4.07,1.056,8.2,8.2,0,0,1-7.267-4.356l-1.646-3.1A8.275,8.275,0,0,1,38.77,8.67,36.977,36.977,0,0,1,56.618,4C70.857,4,81.19,12.88,81.19,25.116c0,10.583-6.663,15.6-11.528,19.26-2.246,1.691-4.369,3.29-4.813,4.71a8.182,8.182,0,0,1-7.87,5.738Z" transform="translate(6.673 0.771)" fill="#fff"/>
    <path id="Path_34" data-name="Path 34" d="M57.389,9.542c11.109,0,19.8,6.444,19.8,16.345,0,13.5-13.826,15.189-16.122,22.549a3.456,3.456,0,0,1-3.317,2.389h-3.49a3.485,3.485,0,0,1-3.51-3.608c.538-10.347,13.733-12.146,13.733-19.744,0-4.668-4.569-6.908-9.429-6.908a16.511,16.511,0,0,0-8.016,2.158,3.633,3.633,0,0,1-1.758.458,3.43,3.43,0,0,1-3.053-1.821l-1.646-3.1a3.522,3.522,0,0,1,1.363-4.7A31.972,31.972,0,0,1,57.389,9.542m0-9.542a41.251,41.251,0,0,0-20.25,5.318,13.036,13.036,0,0,0-4.986,17.415l1.646,3.1a12.965,12.965,0,0,0,11.481,6.889,13.132,13.132,0,0,0,2.5-.242,21.492,21.492,0,0,0-6.561,14.244,12.98,12.98,0,0,0,3.544,9.564,13.152,13.152,0,0,0,9.5,4.079h3.49a12.936,12.936,0,0,0,12.314-8.743A28.527,28.527,0,0,1,73.3,48.959c5.023-3.781,13.428-10.11,13.428-23.072A24.329,24.329,0,0,0,77.416,6.55,32.039,32.039,0,0,0,57.389,0" transform="translate(5.902)" fill="#119da4"/>
    <path id="Path_35" data-name="Path 35" d="M54.258,84.937a12.383,12.383,0,0,1-12.417-10.96,12.833,12.833,0,0,1,2.848-9.73,12.277,12.277,0,0,1,8.739-4.509c.274-.018.558-.027.838-.027a12.669,12.669,0,0,1,12.7,12.606,12.531,12.531,0,0,1-12.712,12.62" transform="translate(8.045 11.508)" fill="#fff"/>
    <path id="Path_36" data-name="Path 36" d="M55.037,65.253a7.963,7.963,0,0,1,7.933,7.835,7.849,7.849,0,0,1-15.625,1.067,7.909,7.909,0,0,1,7.161-8.885c.178-.012.355-.018.531-.018m0-9.542q-.578,0-1.163.038a17.23,17.23,0,0,0-12.092,6.23,17.621,17.621,0,0,0-3.9,13.363,17.39,17.39,0,1,0,17.16-19.631" transform="translate(7.274 10.737)" fill="#119da4"/>
  </g>
</svg>
